<?xml version="1.0" standalone="no"?>
<!DOCTYPE svg PUBLIC "-//W3C//DTD SVG 20010904//EN"
 "http://www.w3.org/TR/2001/REC-SVG-20010904/DTD/svg10.dtd">
<svg version="1.0" xmlns="http://www.w3.org/2000/svg"
 width="308.000000pt" height="308.000000pt" viewBox="0 0 308.000000 308.000000"
 preserveAspectRatio="xMidYMid meet">
<metadata>
Created by potrace 1.14, written by Peter Selinger 2001-2017
</metadata>
<g transform="translate(0.000000,308.000000) scale(0.100000,-0.100000)"
fill="#000000" stroke="none">
<path d="M2130 2799 c-242 -29 -502 -187 -675 -409 -126 -164 -235 -379 -309
-616 -45 -141 -130 -450 -151 -544 -18 -81 -42 -181 -76 -315 -103 -404 -168
-537 -299 -602 -56 -28 -133 -53 -211 -68 -49 -10 -56 -16 -67 -66 -7 -28 -12
-55 -12 -59 0 -9 53 -6 105 5 96 20 535 26 750 12 66 -5 140 -10 165 -12 102
-7 226 -17 245 -20 11 -1 65 -6 120 -10 55 -4 111 -8 125 -11 132 -21 446 -21
532 0 142 36 278 131 340 237 57 97 74 225 44 319 -42 128 -215 156 -263 42
-17 -41 -10 -101 23 -186 38 -95 29 -161 -28 -212 -76 -70 -161 -73 -418 -13
-95 23 -299 65 -345 73 -159 26 -340 24 -505 -4 -30 -5 -73 -12 -95 -16 -22
-3 -58 -10 -80 -15 -22 -4 -43 -9 -48 -9 -4 0 11 27 33 59 76 111 132 256 221
567 22 78 41 150 44 160 2 10 22 89 45 174 22 85 43 163 45 172 14 62 72 274
106 387 123 408 302 710 471 791 113 54 201 29 357 -101 124 -103 171 -122
236 -95 98 41 97 178 -2 267 -110 99 -252 139 -423 118z"/>
<path d="M2095 2314 c-55 -13 -120 -29 -145 -34 -25 -5 -54 -12 -65 -14 -11
-3 -37 -10 -58 -15 -45 -11 -66 -27 -79 -61 -5 -14 -12 -132 -15 -262 -5 -230
-5 -238 14 -238 10 0 24 -5 31 -12 20 -20 40 -18 176 13 72 17 142 33 155 35
61 12 144 33 148 38 6 6 11 103 17 359 5 180 4 187 -15 187 -10 0 -19 7 -19
15 0 20 -23 18 -145 -11z"/>
<path d="M1686 1528 c20 -24 24 -28 67 -77 15 -17 63 -73 106 -125 l79 -93
-119 0 c-109 -1 -122 -3 -163 -27 -31 -18 -51 -39 -67 -72 -20 -42 -22 -60
-21 -194 1 -105 5 -158 15 -183 22 -51 77 -90 142 -102 l56 -10 -59 -85 c-73
-107 -78 -115 -65 -107 6 4 39 48 73 99 35 51 64 95 66 97 3 3 66 4 117 2 14
-1 17 -11 17 -68 0 -36 2 -64 6 -61 3 3 5 33 5 67 l1 61 71 0 c82 0 71 12 123
-138 16 -45 30 -78 32 -73 3 8 -35 124 -63 192 -5 13 5 17 61 22 49 5 77 14
105 33 62 43 73 78 77 242 4 154 -3 193 -45 243 -44 52 -71 60 -208 60 -92 1
-123 4 -118 12 7 13 104 129 114 137 3 3 30 34 60 70 29 36 59 71 66 78 13 14
16 22 9 22 -2 0 -42 -44 -88 -97 -45 -54 -95 -111 -109 -128 -15 -16 -38 -43
-51 -59 l-25 -30 -24 28 c-13 16 -33 38 -44 51 -11 12 -60 70 -110 128 -49 58
-94 106 -99 106 -5 1 -1 -9 10 -21z"/>
</g>
</svg>
